<?xml version="1.0" standalone="no"?>
<!DOCTYPE svg PUBLIC "-//W3C//DTD SVG 20010904//EN"
 "http://www.w3.org/TR/2001/REC-SVG-20010904/DTD/svg10.dtd">
<svg version="1.0" xmlns="http://www.w3.org/2000/svg"
 width="700.000000pt" height="700.000000pt" viewBox="0 0 700.000000 700.000000"
 preserveAspectRatio="xMidYMid meet">
<metadata>
Created by potrace 1.14, written by Peter Selinger 2001-2017
</metadata>
<g transform="translate(0.000000,700.000000) scale(0.100000,-0.100000)"
fill="#000000" stroke="none">
<path opacity="0.4" d="M3279 6996 c-2 -2 -42 -6 -89 -10 -47 -4 -101 -9 -120 -12 -139 -19
-252 -40 -360 -66 -69 -16 -134 -31 -146 -34 -94 -18 -419 -142 -579 -220
-658 -319 -1194 -824 -1547 -1459 -49 -87 -148 -289 -148 -301 0 -2 -9 -23
-20 -47 -57 -123 -157 -435 -186 -582 -2 -11 -10 -54 -19 -95 -29 -147 -36
-199 -52 -370 -15 -160 -7 -607 12 -708 1 -9 6 -42 9 -73 4 -31 9 -67 11 -80
3 -13 7 -39 10 -58 2 -18 7 -41 9 -50 3 -9 8 -29 10 -46 37 -209 151 -550 267
-790 90 -187 290 -523 312 -524 5 -1 6 3 3 7 -19 30 -28 461 -13 594 20 178
76 366 162 543 100 206 199 341 384 525 368 366 858 631 1429 775 132 33 368
77 482 90 30 3 71 8 90 10 35 4 167 15 270 21 30 2 574 4 1208 5 l1154 1 -5
676 c-2 373 -7 688 -10 702 -3 14 -8 43 -12 65 -49 341 -165 618 -354 845
-295 356 -808 585 -1441 645 -36 3 -83 8 -105 11 -46 6 -611 14 -616 10z"/>
<path opacity="0.8" d="M6103 5827 c8 -22 44 -195 52 -252 4 -22 8 -51 10 -64 6 -34 17 -165
20 -236 2 -33 4 -949 4 -2035 l2 -1975 22 25 c98 113 256 347 349 515 51 93
148 290 148 300 0 2 11 28 24 57 57 127 151 421 182 573 17 81 54 301 59 350
4 33 9 71 11 85 9 47 11 525 4 605 -16 169 -22 220 -25 225 -2 3 -6 30 -10 60
-9 75 -69 337 -99 435 -135 445 -348 850 -627 1195 -101 124 -134 160 -126
137z"/>
<path opacity="0.8" d="M3557 3664 c-1 -1 -56 -5 -122 -8 -66 -4 -133 -9 -150 -12 -16 -2
-48 -6 -70 -8 -126 -13 -390 -62 -515 -96 -41 -11 -82 -22 -91 -25 -9 -2 -65
-20 -125 -40 -491 -166 -935 -461 -1186 -789 -215 -280 -304 -557 -293 -921 2
-88 6 -171 9 -185 3 -14 8 -43 11 -65 14 -85 18 -102 42 -185 188 -651 730
-1081 1571 -1250 81 -16 167 -31 191 -34 25 -3 63 -8 85 -11 305 -41 825 -42
1073 -1 21 4 54 9 73 11 19 3 46 7 60 10 14 2 39 7 55 10 346 65 743 214 1075
403 160 91 538 366 563 409 9 15 10 2774 1 2783 -5 4 -2252 8 -2257 4z"/>
</g>
</svg>
