<?xml version="1.0" encoding="utf-8"?>
<!-- Generator: Adobe Illustrator 16.0.3, SVG Export Plug-In . SVG Version: 6.00 Build 0)  -->
<svg version="1.2" baseProfile="tiny" id="Layer_1" xmlns="http://www.w3.org/2000/svg" xmlns:xlink="http://www.w3.org/1999/xlink"
	 x="0px" y="0px" width="1200px" height="120px" viewBox="0 0 1200 120" xml:space="preserve">
<line fill="none" stroke="#FFFFFF" stroke-width="18" stroke-miterlimit="10" x1="-4325" y1="-1315" x2="-2883.7" y2="-718"/>
<rect x="-4198" y="-1289" fill="#660036" width="50" height="670"/>
<rect x="-4148" y="-1254" fill="#660036" width="50" height="635"/>
<rect x="-4098" y="-1219" fill="#660036" width="50" height="600"/>
<rect x="-4048" y="-1244" fill="#660036" width="50" height="625"/>
<rect x="-3998" y="-1189" fill="#660036" width="50" height="570"/>
<rect x="-3948" y="-1129" fill="#660036" width="50" height="510"/>
<rect x="-3898" y="-1169" fill="#660036" width="50" height="550"/>
<rect x="-3848" y="-1139" fill="#660036" width="50" height="520"/>
<rect x="-3798" y="-1109" fill="#660036" width="50" height="490"/>
<rect x="-3748" y="-1069" fill="#660036" width="50" height="450"/>
<rect x="-3698" y="-1039" fill="#660036" width="50" height="420"/>
<rect x="-3648" y="-989" fill="#660036" width="50" height="370"/>
<rect x="-3598" y="-1059" fill="#660036" width="50" height="440"/>
<rect x="-3548" y="-999" fill="#660036" width="50" height="380"/>
<rect x="-3498" y="-979" fill="#660036" width="50" height="360"/>
<rect x="-3448" y="-1009" fill="#660036" width="50" height="390"/>
<rect x="-3398" y="-929" fill="#660036" width="50" height="310"/>
<rect x="-3348" y="-919" fill="#660036" width="50" height="300"/>
<rect x="-3298" y="-889" fill="#660036" width="50" height="270"/>
<rect x="-3248" y="-819" fill="#660036" width="50" height="200"/>
<rect x="-3198" y="-849" fill="#660036" width="50" height="230"/>
<rect x="-3148" y="-829" fill="#660036" width="50" height="210"/>
<rect x="-3098" y="-799" fill="#660036" width="50" height="180"/>
<rect x="-3048" y="-759" fill="#660036" width="50" height="140"/>
<rect x="-10" fill="#35FF2D" width="1220" height="130"/>
<rect x="83.8" y="88.1" transform="matrix(0.9239 -0.3827 0.3827 0.9239 -136.6969 70.4941)" fill="#660036" width="50" height="581.4"/>
<rect x="126.6" y="51.9" transform="matrix(0.9239 -0.3827 0.3827 0.9239 -122.9645 84.7803)" fill="#660036" width="50" height="599.2"/>
<rect x="183.3" y="85.4" transform="matrix(0.9239 -0.3827 0.3827 0.9239 -121.0109 106.9377)" fill="#660036" width="50" height="544.5"/>
<rect x="226.7" y="52" transform="matrix(0.9239 -0.3827 0.3827 0.9239 -107.7633 121.5543)" fill="#660036" width="50" height="559.3"/>
<rect x="281.3" y="75.5" transform="matrix(0.9239 -0.3827 0.3827 0.9239 -104.1154 142.574)" fill="#660036" width="50" height="515"/>
<rect x="333.7" y="87.4" transform="matrix(0.9239 -0.3827 0.3827 0.9239 -98.5062 162.2886)" fill="#660036" width="50" height="482.7"/>
<rect x="376.3" y="50.3" transform="matrix(0.9239 -0.3827 0.3827 0.9239 -84.645 176.4999)" fill="#660036" width="50" height="501.4"/>
<rect x="431.5" y="76.5" transform="matrix(0.9239 -0.3827 0.3827 0.9239 -81.4496 197.8172)" fill="#660036" width="50" height="454.3"/>
<rect x="465.1" y="-5.9" transform="matrix(0.9239 -0.3827 0.3827 0.9239 -59.947 206.9124)" fill="#660036" width="50" height="520"/>
<rect x="523.8" y="37.7" transform="matrix(0.9239 -0.3827 0.3827 0.9239 -59.676 230.2088)" fill="#660036" width="50" height="454.9"/>
<rect x="572.9" y="33" transform="matrix(0.9239 -0.3827 0.3827 0.9239 -51.2721 248.0532)" fill="#660036" width="50" height="439.9"/>
<rect x="615.1" y="-6.1" transform="matrix(0.9239 -0.3827 0.3827 0.9239 -37.075 262.0181)" fill="#660036" width="50" height="460.6"/>
<rect x="677.4" y="55.9" transform="matrix(0.9239 -0.3827 0.3827 0.9239 -39.9075 287.3791)" fill="#660036" width="50" height="376.3"/>
<rect x="715.6" y="-3.4" transform="matrix(0.9239 -0.3827 0.3827 0.9239 -22.305 299.0893)" fill="#660036" width="50" height="418"/>
<rect x="767.6" y="6.6" transform="matrix(0.9239 -0.3827 0.3827 0.9239 -16.3801 318.5784)" fill="#660036" width="50" height="387.7"/>
<rect x="817.3" y="4.9" transform="matrix(0.9239 -0.3827 0.3827 0.9239 -8.4811 336.7703)" fill="#660036" width="50" height="369.6"/>
<rect x="874.1" y="39.2" transform="matrix(0.9239 -0.3827 0.3827 0.9239 -6.64 359.0211)" fill="#660036" width="50" height="314.1"/>
<rect x="927.4" y="55.8" transform="matrix(0.9239 -0.3827 0.3827 0.9239 -1.8325 379.2381)" fill="#660036" width="50" height="276.9"/>
<rect x="984.8" y="93" transform="matrix(0.9239 -0.3827 0.3827 0.9239 -0.502 401.8281)" fill="#660036" width="50" height="218.3"/>
<rect x="1036.3" y="100.7" transform="matrix(0.9239 -0.3827 0.3827 0.9239 5.8219 421.0876)" fill="#660036" width="50" height="190.4"/>
<rect x="1080.7" y="72.5" transform="matrix(0.9239 -0.3827 0.3827 0.9239 18.1759 436.265)" fill="#660036" width="50" height="199.8"/>
<rect x="1136.1" y="99.6" transform="matrix(0.9239 -0.3827 0.3827 0.9239 21.2179 457.6949)" fill="#660036" width="50" height="151.8"/>
<rect x="1187" y="103.9" transform="matrix(0.9239 -0.3827 0.3827 0.9239 28.1095 476.5883)" fill="#660036" width="50" height="127.4"/>
<rect x="1234.7" y="92.6" transform="matrix(0.9239 -0.3827 0.3827 0.9239 37.635 493.6771)" fill="#660036" width="50" height="119.3"/>
<rect x="-2410" fill="#35FF2D" width="1220" height="130"/>
<rect x="-2478.4" y="106.7" transform="matrix(0.9239 0.3827 -0.3827 0.9239 -133.4272 949.5004)" fill="#660036" width="50" height="65.4"/>
<rect x="-2424.3" y="86.1" transform="matrix(0.9239 0.3827 -0.3827 0.9239 -129.2788 928.779)" fill="#660036" width="50" height="106.7"/>
<rect x="-2374.8" y="88.6" transform="matrix(0.9239 0.3827 -0.3827 0.9239 -121.2312 910.6727)" fill="#660036" width="50" height="123.9"/>
<rect x="-2321" y="69.7" transform="matrix(0.9239 0.3827 -0.3827 0.9239 -116.8352 890.2056)" fill="#660036" width="50" height="163.5"/>
<rect x="-2267.9" y="53.9" transform="matrix(0.9239 0.3827 -0.3827 0.9239 -111.8706 870.0117)" fill="#660036" width="50" height="199.8"/>
<rect x="-2225.5" y="92" transform="matrix(0.9239 0.3827 -0.3827 0.9239 -97.8296 855.9208)" fill="#660036" width="50" height="180.1"/>
<rect x="-2162.8" y="28.5" transform="matrix(0.9239 0.3827 -0.3827 0.9239 -100.9333 830.4385)" fill="#660036" width="50" height="266"/>
<rect x="-2123.3" y="80.9" transform="matrix(0.9239 0.3827 -0.3827 0.9239 -84.4822 817.9232)" fill="#660036" width="50" height="231.4"/>
<rect x="-2072.6" y="77.6" transform="matrix(0.9239 0.3827 -0.3827 0.9239 -77.4277 799.1649)" fill="#660036" width="50" height="254.8"/>
<rect x="-2013.9" y="33.9" transform="matrix(0.9239 0.3827 -0.3827 0.9239 -77.1859 775.9226)" fill="#660036" width="50" height="320"/>
<rect x="-1975.8" y="93.5" transform="matrix(0.9239 0.3827 -0.3827 0.9239 -59.5313 764.238)" fill="#660036" width="50" height="278"/>
<rect x="-1919.1" y="60" transform="matrix(0.9239 0.3827 -0.3827 0.9239 -57.5507 742.0664)" fill="#660036" width="50" height="332.7"/>
<rect x="-1857.4" y="1.2" transform="matrix(0.9239 0.3827 -0.3827 0.9239 -59.8586 717.0613)" fill="#660036" width="50" height="413.7"/>
<rect x="-1806.8" y="-1.6" transform="matrix(0.9239 0.3827 -0.3827 0.9239 -52.7324 698.3893)" fill="#660036" width="50" height="436.6"/>
<rect x="-1765.5" y="42" transform="matrix(0.9239 0.3827 -0.3827 0.9239 -37.7573 684.903)" fill="#660036" width="50" height="411.1"/>
<rect x="-1707.7" y="2.6" transform="matrix(0.9239 0.3827 -0.3827 0.9239 -36.7911 662.0859)" fill="#660036" width="50" height="472"/>
<rect x="-1672" y="74.7" transform="matrix(0.9239 0.3827 -0.3827 0.9239 -17.0173 651.8619)" fill="#660036" width="50" height="416.8"/>
<rect x="-1617.9" y="53.7" transform="matrix(0.9239 0.3827 -0.3827 0.9239 -12.947 631.092)" fill="#660036" width="50" height="458.6"/>
<rect x="-1560" y="14.2" transform="matrix(0.9239 0.3827 -0.3827 0.9239 -11.9911 608.2678)" fill="#660036" width="50" height="519.5"/>
<rect x="-1522.2" y="75.6" transform="matrix(0.9239 0.3827 -0.3827 0.9239 5.9617 596.8549)" fill="#660036" width="50" height="475.6"/>
<rect x="-1462.7" y="27.6" transform="matrix(0.9239 0.3827 -0.3827 0.9239 5.4915 573.0003)" fill="#660036" width="50" height="545.4"/>
<rect x="-1421.7" y="72.9" transform="matrix(0.9239 0.3827 -0.3827 0.9239 20.7277 559.769)" fill="#660036" width="50" height="518.2"/>
<rect x="-1371.9" y="73.9" transform="matrix(0.9239 0.3827 -0.3827 0.9239 28.5134 541.4745)" fill="#660036" width="50" height="537.1"/>
<rect x="-1322.2" y="75.4" transform="matrix(0.9239 0.3827 -0.3827 0.9239 36.3656 523.3477)" fill="#660036" width="50" height="555.4"/>
<rect x="-10" y="-1200" fill="#35FF2D" width="1220" height="130"/>
<rect x="-47.4" y="-1186.1" transform="matrix(0.9239 0.3827 -0.3827 0.9239 -422.0769 -75.0681)" fill="#660036" width="50" height="175.3"/>
<rect x="3.7" y="-1191.2" transform="matrix(0.9239 0.3827 -0.3827 0.9239 -415.2938 -94.0068)" fill="#660036" width="50" height="200.5"/>
<rect x="46.8" y="-1156.7" transform="matrix(0.9239 0.3827 -0.3827 0.9239 -401.8621 -108.4963)" fill="#660036" width="50" height="184.6"/>
<rect x="103.6" y="-1191" transform="matrix(0.9239 0.3827 -0.3827 0.9239 -400.0584 -130.7509)" fill="#660036" width="50" height="240.1"/>
<rect x="146.8" y="-1156.9" transform="matrix(0.9239 0.3827 -0.3827 0.9239 -386.6796 -145.2773)" fill="#660036" width="50" height="224.6"/>
<rect x="188.4" y="-1114.2" transform="matrix(0.9239 0.3827 -0.3827 0.9239 -371.8642 -158.8406)" fill="#660036" width="50" height="200.1"/>
<rect x="247.2" y="-1158.5" transform="matrix(0.9239 0.3827 -0.3827 0.9239 -371.7335 -182.218)" fill="#660036" width="50" height="266"/>
<rect x="286.7" y="-1106.1" transform="matrix(0.9239 0.3827 -0.3827 0.9239 -355.2729 -194.6802)" fill="#660036" width="50" height="231.4"/>
<rect x="337.4" y="-1109.4" transform="matrix(0.9239 0.3827 -0.3827 0.9239 -348.2209 -213.4308)" fill="#660036" width="50" height="254.8"/>
<rect x="397.5" y="-1160.4" transform="matrix(0.9239 0.3827 -0.3827 0.9239 -349.2246 -237.5707)" fill="#660036" width="50" height="327.7"/>
<rect x="437" y="-1107.4" transform="matrix(0.9239 0.3827 -0.3827 0.9239 -332.6548 -249.9592)" fill="#660036" width="50" height="292.4"/>
<rect x="487.8" y="-1111.5" transform="matrix(0.9239 0.3827 -0.3827 0.9239 -325.7314 -268.7923)" fill="#660036" width="50" height="316.6"/>
<rect x="546.3" y="-1154.2" transform="matrix(0.9239 0.3827 -0.3827 0.9239 -325.3291 -291.9893)" fill="#660036" width="50" height="380.9"/>
<rect x="588.6" y="-1115.3" transform="matrix(0.9239 0.3827 -0.3827 0.9239 -311.155 -305.9869)" fill="#660036" width="50" height="360.3"/>
<rect x="643.6" y="-1140.7" transform="matrix(0.9239 0.3827 -0.3827 0.9239 -307.8286 -327.2224)" fill="#660036" width="50" height="406.6"/>
<rect x="687.9" y="-1111.7" transform="matrix(0.9239 0.3827 -0.3827 0.9239 -295.3265 -342.3315)" fill="#660036" width="50" height="396.4"/>
<rect x="741" y="-1127.7" transform="matrix(0.9239 0.3827 -0.3827 0.9239 -290.4083 -362.5159)" fill="#660036" width="50" height="432.8"/>
<rect x="792.1" y="-1133.3" transform="matrix(0.9239 0.3827 -0.3827 0.9239 -283.739 -381.5096)" fill="#660036" width="50" height="458.6"/>
<rect x="855.6" y="-1200.8" transform="matrix(0.9239 0.3827 -0.3827 0.9239 -287.52 -407.5049)" fill="#660036" width="50" height="548.7"/>
<rect x="895.6" y="-1150.9" transform="matrix(0.9239 0.3827 -0.3827 0.9239 -271.4993 -420.2825)" fill="#660036" width="50" height="516.7"/>
<rect x="954.5" y="-1195.3" transform="matrix(0.9239 0.3827 -0.3827 0.9239 -271.355 -443.613)" fill="#660036" width="50" height="582.7"/>
<rect x="1005.9" y="-1202.6" transform="matrix(0.9239 0.3827 -0.3827 0.9239 -264.9841 -462.8548)" fill="#660036" width="50" height="610.2"/>
<rect x="1056.6" y="-1206" transform="matrix(0.9239 0.3827 -0.3827 0.9239 -257.9358 -481.5821)" fill="#660036" width="50" height="633.6"/>
<rect x="1097.1" y="-1158.1" transform="matrix(0.9239 0.3827 -0.3827 0.9239 -242.2786 -494.6521)" fill="#660036" width="50" height="603.8"/>
<rect x="-2410" y="-1200" fill="#35FF2D" width="1220" height="130"/>
<rect x="-2350.7" y="-1198.1" transform="matrix(0.9239 -0.3827 0.3827 0.9239 170.7539 -959.2413)" fill="#660036" width="50" height="578.6"/>
<rect x="-2301.6" y="-1202.6" transform="matrix(0.9239 -0.3827 0.3827 0.9239 179.1265 -941.3083)" fill="#660036" width="50" height="563.4"/>
<rect x="-2248.7" y="-1188" transform="matrix(0.9239 -0.3827 0.3827 0.9239 184.2654 -921.2795)" fill="#660036" width="50" height="528.3"/>
<rect x="-2191.2" y="-1150" transform="matrix(0.9239 -0.3827 0.3827 0.9239 185.4712 -898.6821)" fill="#660036" width="50" height="468.9"/>
<rect x="-2149.9" y="-1193.8" transform="matrix(0.9239 -0.3827 0.3827 0.9239 200.4663 -885.1788)" fill="#660036" width="50" height="494.5"/>
<rect x="-2091.3" y="-1150.7" transform="matrix(0.9239 -0.3827 0.3827 0.9239 200.8157 -861.9498)" fill="#660036" width="50" height="429.9"/>
<rect x="-2036.3" y="-1125.4" transform="matrix(0.9239 -0.3827 0.3827 0.9239 204.1633 -840.7791)" fill="#660036" width="50" height="383.7"/>
<rect x="-1994.2" y="-1165" transform="matrix(0.9239 -0.3827 0.3827 0.9239 218.4548 -826.8104)" fill="#660036" width="50" height="405"/>
<rect x="-1938.7" y="-1137.6" transform="matrix(0.9239 -0.3827 0.3827 0.9239 221.4436 -805.3448)" fill="#660036" width="50" height="356.6"/>
<rect x="-1885.8" y="-1122.9" transform="matrix(0.9239 -0.3827 0.3827 0.9239 226.582 -785.3658)" fill="#660036" width="50" height="321.4"/>
<rect x="-1832.6" y="-1107.1" transform="matrix(0.9239 -0.3827 0.3827 0.9239 231.5291 -765.1926)" fill="#660036" width="50" height="285.1"/>
<rect x="-1790.6" y="-1147.2" transform="matrix(0.9239 -0.3827 0.3827 0.9239 245.8877 -751.2896)" fill="#660036" width="50" height="306.8"/>
<rect x="-1732.8" y="-1107.7" transform="matrix(0.9239 -0.3827 0.3827 0.9239 246.8511 -728.484)" fill="#660036" width="50" height="246"/>
<rect x="-1690.5" y="-1146.5" transform="matrix(0.9239 -0.3827 0.3827 0.9239 261.0012 -714.494)" fill="#660036" width="50" height="266.4"/>
<rect x="-1634.9" y="-1118.5" transform="matrix(0.9239 -0.3827 0.3827 0.9239 263.8857 -692.9274)" fill="#660036" width="50" height="217.3"/>
<rect x="-1584.6" y="-1117.2" transform="matrix(0.9239 -0.3827 0.3827 0.9239 271.2919 -674.4253)" fill="#660036" width="50" height="196.2"/>
<rect x="-1543.4" y="-1161.2" transform="matrix(0.9239 -0.3827 0.3827 0.9239 286.3157 -661.0287)" fill="#660036" width="50" height="221.9"/>
<rect x="-1484.6" y="-1117.2" transform="matrix(0.9239 -0.3827 0.3827 0.9239 286.4998 -637.6382)" fill="#660036" width="50" height="156.3"/>
<rect x="-1444.3" y="-1165.9" transform="matrix(0.9239 -0.3827 0.3827 0.9239 302.3311 -624.7756)" fill="#660036" width="50" height="187.1"/>
<rect x="-1392.1" y="-1154.9" transform="matrix(0.9239 -0.3827 0.3827 0.9239 308.0951 -605.1884)" fill="#660036" width="50" height="155.7"/>
<rect x="-1341.8" y="-1153.2" transform="matrix(0.9239 -0.3827 0.3827 0.9239 315.4037 -586.5743)" fill="#660036" width="50" height="134.1"/>
<rect x="-1289.6" y="-1142" transform="matrix(0.9239 -0.3827 0.3827 0.9239 321.1315 -566.95)" fill="#660036" width="50" height="102.5"/>
<rect x="-1248.9" y="-1189.1" transform="matrix(0.9239 -0.3827 0.3827 0.9239 336.7046 -553.9119)" fill="#660036" width="50" height="131.6"/>
<rect x="-1200.3" y="-1196.1" transform="matrix(0.9239 -0.3827 0.3827 0.9239 345.4897 -536.3091)" fill="#660036" width="50" height="119"/>
</svg>
