<?xml version="1.0" encoding="utf-8"?>
<!-- Generator: Adobe Illustrator 16.0.3, SVG Export Plug-In . SVG Version: 6.00 Build 0)  -->
<svg version="1.2" baseProfile="tiny" id="Layer_1" xmlns="http://www.w3.org/2000/svg" xmlns:xlink="http://www.w3.org/1999/xlink"
	 x="0px" y="0px" width="1200px" height="120px" viewBox="0 0 1200 120" xml:space="preserve">
<polygon fill="#FF0000" points="1210,5.1 1178.8,18 1174,6.3 1127.8,25.5 1138.9,52.4 1092.7,71.5 1080.7,42.4 1034.5,61.5 
	1026.2,41.5 980,60.6 968,31.7 921.8,50.8 933.5,79.2 887.4,98.3 862.2,37.7 816.1,56.9 825.9,80.7 779.7,99.8 771.6,80.2 
	725.4,99.4 706.7,54.1 660.5,73.2 668.3,92.1 622.1,111.2 598.8,54.9 552.6,74.1 560.9,94.2 514.7,113.3 500.8,79.7 454.6,98.9 
	441.2,66.4 395,85.5 376.5,40.8 330.3,59.9 338.4,79.6 292.2,98.8 274.5,56.1 228.3,75.2 203.6,15.5 157.4,34.6 167.2,58.3 
	121,77.4 98.3,22.6 52.1,41.7 38.7,9.2 -7.5,28.4 -10,22.4 -10,130 1210,130 "/>
</svg>
