<?xml version="1.0" encoding="utf-8"?>
<!-- Generator: Adobe Illustrator 16.0.3, SVG Export Plug-In . SVG Version: 6.00 Build 0)  -->
<svg version="1.2" baseProfile="tiny" id="Layer_1" xmlns="http://www.w3.org/2000/svg" xmlns:xlink="http://www.w3.org/1999/xlink"
	 x="0px" y="0px" width="1200px" height="120px" viewBox="0 0 1200 120" xml:space="preserve">
<polygon fill="#FF0000" points="1210,21.1 1179.7,8.6 1170.8,30.2 1124.6,11.1 1114.1,36.4 1067.9,17.3 1042.6,78.3 996.4,59.2 
	1008.7,29.6 962.5,10.5 928,93.7 881.8,74.6 871.9,98.4 825.7,79.3 811.8,112.9 765.6,93.8 769.5,84.3 723.3,65.2 705.6,108 
	659.4,88.9 667.3,69.8 621.1,50.7 596.5,110.1 550.3,91 541,113.3 494.8,94.2 508.3,61.6 462.1,42.5 434.2,109.8 388,90.7 
	379.1,112.3 332.9,93.1 346.1,61.2 299.9,42.1 274.7,103 228.5,83.8 237.9,61.2 191.7,42 197.7,27.7 151.5,8.6 130.2,59.9 84,40.8 
	90.1,26 43.9,6.9 34.3,30.2 -10,11.8 -10,130 1210,130 "/>
</svg>
