<?xml version="1.0" encoding="utf-8"?>
<!-- Generator: Adobe Illustrator 16.0.3, SVG Export Plug-In . SVG Version: 6.00 Build 0)  -->
<svg version="1.2" baseProfile="tiny" id="Layer_1" xmlns="http://www.w3.org/2000/svg" xmlns:xlink="http://www.w3.org/1999/xlink"
	 x="0px" y="0px" width="1200px" height="120px" viewBox="0 0 1200 120" xml:space="preserve">
<polygon points="1210,76.2 1182.9,87.5 1174.2,66.4 1128,85.6 1109.9,41.9 1063.7,61.1 1052,32.8 1005.8,51.9 1016,76.4 969.8,95.6 
	955.4,61 909.2,80.1 890.7,35.3 844.5,54.4 827.5,13.4 781.3,32.5 770.7,7 724.5,26.1 741.4,66.9 695.2,86 675.3,37.9 629.1,57.1 
	617.1,28.2 571,47.3 580.4,70.2 534.2,89.3 521.4,58.4 475.2,77.5 459.3,39.2 413.1,58.3 419.5,73.7 373.3,92.8 350.5,37.7 
	304.3,56.8 286.9,14.8 240.7,34 252.1,61.6 205.9,80.7 186.8,34.6 140.6,53.7 121.6,7.7 75.4,26.9 83,45.2 36.8,64.3 23.4,32 
	-10,45.8 -10,124 1210,124 "/>
</svg>
