<?xml version="1.0" encoding="utf-8"?>
<!-- Generator: Adobe Illustrator 16.0.3, SVG Export Plug-In . SVG Version: 6.00 Build 0)  -->
<svg version="1.2" baseProfile="tiny" id="Layer_1" xmlns="http://www.w3.org/2000/svg" xmlns:xlink="http://www.w3.org/1999/xlink"
	 x="0px" y="0px" width="1200px" height="120px" viewBox="0 0 1200 120" xml:space="preserve">
<polygon fill="#FF0000" points="1210,99.5 1164.5,118.4 1155.2,95.8 1109,115 1090.6,70.6 1044.4,89.7 1048,98.4 1001.8,117.5 
	991.1,91.8 945,110.9 922.5,56.7 876.3,75.9 862.1,41.5 815.9,60.7 794.7,9.4 748.5,28.6 741.5,11.8 695.4,30.9 683.8,3 637.6,22.1 
	653.5,60.6 607.3,79.8 575.1,1.9 528.9,21 536.8,40.2 490.6,59.3 484.9,45.4 438.7,64.5 413.7,4.4 367.6,23.5 392.7,84.2 
	346.5,103.4 328.5,59.8 282.3,79 289.4,96.2 243.2,115.3 230.9,85.5 184.7,104.7 167.7,63.7 121.5,82.8 127.2,96.6 81,115.7 
	60.1,65.1 13.9,84.2 20.7,100.7 -10,113.4 -10,130 1210,130 "/>
</svg>
