<?xml version="1.0" encoding="utf-8"?>
<!-- Generator: Adobe Illustrator 16.0.3, SVG Export Plug-In . SVG Version: 6.00 Build 0)  -->
<svg version="1.2" baseProfile="tiny" id="Layer_1" xmlns="http://www.w3.org/2000/svg" xmlns:xlink="http://www.w3.org/1999/xlink"
	 x="0px" y="0px" width="1200px" height="120px" viewBox="0 0 1200 120" xml:space="preserve">
<polygon fill="#FF0000" points="1210,96.9 1186,86.9 1179,103.9 1132.8,84.7 1125.6,102.2 1079.4,83 1089.8,57.9 1043.6,38.8 
	1016.9,103.3 970.7,84.1 987.5,43.6 941.3,24.4 918,80.7 871.8,61.6 855.8,100.2 809.6,81 830.7,30.1 784.5,11 761.2,67.2 715,48.1 
	724.8,24.5 678.6,5.4 669.8,26.5 623.7,7.4 592.6,82.3 546.4,63.1 525.5,113.6 479.3,94.5 495.4,55.7 449.2,36.6 424.2,96.8 
	378,77.7 369.1,99.3 322.9,80.1 336.1,48.2 289.9,29.1 257.1,108.4 210.9,89.3 218.4,71.1 172.2,51.9 158.4,85.5 112.2,66.3 
	97,102.9 50.8,83.8 44.2,99.7 -2,80.6 -10,99.9 -10,130 1210,130 "/>
</svg>
